<?xml version="1.0" standalone="no"?>
<!DOCTYPE svg PUBLIC "-//W3C//DTD SVG 20010904//EN"
 "http://www.w3.org/TR/2001/REC-SVG-20010904/DTD/svg10.dtd">
<svg version="1.0" xmlns="http://www.w3.org/2000/svg"
 width="512.000000pt" height="512.000000pt" viewBox="0 0 512.000000 512.000000"
 preserveAspectRatio="xMidYMid meet">
<metadata>
Created by potrace 1.11, written by Peter Selinger 2001-2013
</metadata>
<g transform="translate(0.000000,512.000000) scale(0.100000,-0.100000)"
fill="#000000" stroke="none">
<path d="M2137 4730 c-11 -11 -42 -20 -80 -24 -94 -10 -241 -43 -345 -77 -51
-17 -100 -28 -108 -25 -9 3 -21 3 -27 -1 -7 -4 -39 -19 -72 -33 -33 -14 -87
-40 -120 -58 -64 -34 -76 -42 -142 -84 -23 -16 -46 -28 -52 -28 -6 0 -11 -4
-11 -9 0 -5 -9 -12 -19 -16 -41 -13 -299 -271 -413 -412 -49 -62 -94 -113 -98
-113 -8 0 -46 -60 -108 -171 -38 -68 -47 -79 -73 -88 -21 -7 -36 -28 -63 -85
-20 -41 -36 -87 -36 -101 0 -13 -9 -59 -21 -102 -53 -193 -52 -271 5 -320 33
-28 33 -36 8 -173 -17 -89 -36 -271 -45 -425 -2 -38 -4 -40 -37 -45 -28 -4
-39 -12 -53 -41 -46 -94 -68 -388 -42 -556 22 -140 32 -153 127 -153 66 0 68
-1 68 -25 0 -31 22 -105 32 -105 3 0 21 -29 38 -65 17 -36 35 -67 40 -70 5 -3
11 -24 15 -46 5 -29 20 -56 46 -84 22 -23 39 -47 39 -54 0 -6 6 -11 14 -11 7
0 19 -6 25 -13 6 -8 28 -19 50 -26 47 -14 54 -31 71 -171 16 -135 109 -504
130 -520 4 -3 20 -39 35 -80 30 -79 43 -99 61 -93 5 2 18 -14 28 -34 10 -21
38 -73 63 -115 l45 -78 64 0 c35 0 64 2 64 4 0 2 -16 30 -36 62 -121 199 -218
458 -263 699 -61 331 -59 998 5 1515 34 275 89 523 174 790 41 129 54 160 71
165 43 14 348 -16 613 -60 82 -14 150 -24 152 -22 1 1 3 58 5 127 l4 125 -70
9 c-119 15 -539 -18 -648 -50 -25 -8 -18 13 44 140 76 153 153 261 269 377
208 208 432 319 790 391 100 20 145 23 345 23 240 0 333 -11 525 -64 283 -79
489 -237 653 -501 89 -144 230 -507 293 -755 81 -315 156 -872 170 -1257 22
-589 -150 -1141 -503 -1610 -40 -54 -73 -100 -73 -103 0 -3 27 -5 59 -5 65 0
68 2 145 118 16 23 33 42 37 42 5 0 4 11 -2 23 -9 20 -5 33 28 88 63 102 147
285 187 404 18 57 32 83 48 90 12 6 23 21 25 35 2 14 12 52 22 85 11 33 24 79
31 103 11 42 14 45 98 85 114 53 174 112 192 188 7 30 26 75 42 101 16 26 38
85 50 131 l21 85 63 4 c78 5 101 23 109 87 4 25 11 61 15 78 7 26 5 33 -6 33
-11 0 -14 23 -14 118 0 139 -14 275 -37 354 -16 57 -16 57 -62 64 -25 4 -49
12 -53 18 -13 19 -9 88 6 100 11 9 12 28 4 101 -5 50 -9 97 -9 105 -1 8 -10
62 -21 120 -32 168 -33 160 7 205 43 48 49 70 41 139 -7 61 -53 245 -65 261
-5 5 -7 19 -6 31 1 13 -5 20 -18 21 -23 2 -18 -5 -49 68 -26 63 -43 77 -112
92 -33 7 -44 16 -68 56 -15 26 -25 47 -22 47 2 0 -4 10 -16 22 -11 12 -20 25
-20 30 0 4 -7 16 -15 26 -62 70 -124 159 -120 172 11 36 -295 315 -460 419
-39 24 -81 52 -95 61 -41 28 -98 52 -108 46 -6 -3 -50 12 -98 35 -49 22 -98
44 -109 49 -52 24 -242 86 -305 101 -25 5 -52 18 -60 29 -9 10 -34 21 -60 24
-25 3 -65 10 -90 15 -117 25 -235 34 -475 36 -235 2 -262 1 -278 -15z m418
-20 c142 -9 297 -29 395 -51 25 -5 62 -12 83 -16 21 -3 40 -10 43 -14 3 -5 14
-9 24 -9 11 0 31 -5 45 -12 24 -11 25 -13 8 -19 -16 -7 -16 -8 5 -15 29 -9 28
-17 -8 -47 -16 -14 -30 -35 -30 -47 0 -17 -4 -20 -22 -15 -19 5 -20 4 -8 -5
12 -9 10 -10 -10 -4 -14 4 -27 11 -28 15 -2 5 -7 7 -12 4 -5 -3 -21 0 -37 6
-15 6 -35 12 -43 14 -244 56 -456 74 -673 57 -84 -7 -194 -21 -246 -31 -52
-11 -101 -17 -109 -13 -9 3 -13 1 -10 -4 4 -5 -8 -10 -25 -11 -28 -2 -30 -1
-15 11 16 12 16 14 -7 24 -14 6 -25 16 -25 22 0 5 -10 11 -22 11 -18 1 -19 2
-5 6 9 2 15 9 11 14 -3 5 -10 7 -15 4 -5 -4 -9 -1 -9 4 0 6 7 11 15 11 8 0 15
5 15 10 0 6 -5 10 -12 10 -33 0 16 20 92 38 163 38 196 43 325 51 72 5 137 9
145 9 8 1 82 -3 165 -8z m650 -131 c11 -16 1 -19 -13 -3 -7 8 -8 14 -3 14 5 0
13 -5 16 -11z m-59 -124 c-8 -8 -20 -15 -26 -15 -16 0 12 29 28 30 10 0 10 -4
-2 -15z m-2172 -654 c28 -53 125 -118 168 -112 10 1 26 -3 37 -9 20 -10 20
-11 -3 -53 -13 -23 -50 -94 -83 -157 -72 -139 -117 -212 -126 -205 -4 3 -5 2
-2 -1 2 -4 -2 -16 -10 -28 -8 -11 -15 -39 -15 -61 0 -22 -9 -60 -20 -84 -11
-24 -20 -51 -20 -62 0 -10 -4 -21 -10 -24 -6 -3 -10 -15 -10 -25 0 -23 -28
-40 -65 -40 -14 0 -43 -9 -65 -20 -67 -34 -99 -22 -66 25 7 11 19 45 26 75 7
30 19 64 26 75 16 25 61 245 70 340 4 41 2 87 -5 110 -13 49 4 104 52 174 37
54 88 111 99 111 4 0 14 -13 22 -29z m3197 -173 c62 -68 119 -151 120 -176 1
-16 6 -2 14 31 7 32 15 60 18 63 11 12 140 18 134 7 -4 -6 2 -13 12 -16 23 -6
18 -45 -11 -92 -10 -16 -18 -38 -18 -47 0 -10 -14 -33 -31 -53 -35 -39 -83
-49 -93 -17 -3 9 -3 -1 -1 -22 2 -22 0 -46 -6 -53 -8 -9 0 -50 29 -150 22 -76
47 -151 56 -167 19 -37 13 -47 -22 -37 -66 20 -99 40 -110 67 -11 28 -49 156
-59 201 -3 12 -13 25 -23 28 -12 4 -28 37 -49 98 -17 51 -38 104 -47 119 -8
15 -14 29 -13 30 1 2 -6 20 -15 42 -9 21 -16 44 -16 51 0 20 73 125 88 125 7
0 27 -15 43 -32z m-3411 -77 c15 -30 12 -173 -5 -212 -8 -21 -14 -27 -15 -16
0 12 -4 16 -12 10 -26 -15 -39 -11 -53 20 -8 18 -19 39 -24 47 -17 28 -41 88
-41 104 0 9 6 16 13 17 6 1 1 5 -13 9 -25 8 -25 8 5 10 17 1 24 4 17 7 -27 11
3 23 58 23 48 0 61 -4 70 -19z m-215 -683 c29 -13 31 -21 11 -41 -16 -15 -37
-75 -56 -154 -7 -33 -17 -53 -26 -53 -16 0 -17 25 -4 90 5 25 12 68 15 95 10
82 12 85 60 63z m4054 -45 c18 -67 33 -170 29 -199 l-3 -29 -17 30 c-9 17 -24
62 -33 100 -10 39 -25 78 -34 88 -15 17 -14 20 4 33 30 22 44 17 54 -23z"/>
<path d="M3130 4530 c-9 -6 -10 -10 -3 -10 6 0 15 5 18 10 8 12 4 12 -15 0z"/>
<path d="M4295 3410 c3 -5 8 -10 11 -10 2 0 4 5 4 10 0 6 -5 10 -11 10 -5 0
-7 -4 -4 -10z"/>
<path d="M2836 3523 l-49 -4 7 -67 c3 -37 6 -96 6 -131 l0 -63 28 6 c83 18
356 59 482 71 234 24 379 17 452 -21 56 -29 19 30 -46 76 -78 53 -209 92 -385
115 -112 15 -412 26 -495 18z"/>
<path d="M3188 3111 c-63 -20 -144 -68 -174 -103 -16 -18 -14 -18 16 4 72 53
122 71 205 76 64 3 93 0 145 -18 179 -60 346 -238 424 -452 58 -161 68 -330
31 -495 l-16 -72 -82 -29 c-158 -56 -309 -80 -565 -89 -106 -3 -190 -8 -188
-11 3 -2 46 -10 98 -18 188 -28 407 -13 593 41 128 37 204 73 210 99 22 98 26
136 26 241 0 271 -89 503 -261 675 -150 151 -305 201 -462 151z"/>
<path d="M1500 2911 c-92 -14 -201 -91 -276 -196 -178 -251 -190 -657 -28
-965 20 -39 46 -76 58 -83 14 -7 76 -11 181 -11 183 1 300 21 461 79 92 33
259 114 251 121 -2 2 -44 -10 -93 -26 -226 -77 -452 -120 -632 -120 -110 0
-114 1 -139 28 -39 41 -100 178 -124 278 -18 76 -20 110 -16 229 5 164 19 223
84 355 56 115 145 210 238 256 54 26 70 29 160 29 64 0 108 -5 124 -14 13 -7
20 -8 17 -2 -18 29 -183 55 -266 42z"/>
<path d="M3215 2691 c-196 -89 -190 -443 9 -526 146 -61 303 125 267 317 -15
85 -47 153 -34 75 10 -65 -60 -105 -108 -61 -12 11 -27 31 -35 46 -42 81 22
149 96 102 14 -8 9 -2 -10 15 -57 52 -119 62 -185 32z m-17 -383 c7 -7 12 -25
12 -40 0 -23 -4 -28 -25 -28 -28 0 -52 37 -42 64 7 19 38 21 55 4z"/>
<path d="M1635 2531 c-51 -24 -88 -63 -117 -126 -33 -71 -32 -198 1 -272 42
-94 136 -154 214 -138 147 31 230 247 158 411 -11 24 -23 44 -26 44 -3 0 -1
-9 5 -19 25 -49 -2 -111 -48 -111 -73 0 -127 99 -86 158 19 27 68 30 98 5 l21
-18 -20 24 c-25 30 -91 61 -130 61 -16 0 -48 -9 -70 -19z m-24 -374 c38 -29
25 -89 -16 -73 -25 9 -40 53 -25 71 15 18 20 18 41 2z"/>
<path d="M3399 1646 c7 -8 34 -19 60 -25 61 -13 161 -50 161 -60 0 -4 -14 -26
-31 -49 -74 -101 -243 -185 -508 -252 -111 -28 -386 -80 -422 -80 -9 0 -25 21
-39 50 -13 28 -27 50 -31 50 -4 0 -11 -20 -14 -43 -4 -24 -10 -49 -14 -55 -4
-7 -66 -16 -153 -23 -286 -22 -542 24 -676 121 -62 45 -56 54 35 46 113 -11
446 -8 581 5 282 25 463 60 842 159 146 39 275 70 285 70 18 0 17 1 -3 16 -27
19 -14 21 -362 -71 -362 -96 -572 -132 -910 -156 -226 -16 -486 -5 -642 27
-27 5 -28 4 -28 -31 0 -54 37 -224 66 -307 181 -509 595 -778 1122 -728 309
29 542 128 723 309 168 168 250 340 327 686 l9 40 18 -60 c27 -92 29 -94 33
-32 6 110 -50 247 -121 296 -78 53 -232 111 -297 111 -18 0 -20 -3 -11 -14z
m-1413 -772 c28 -29 34 -43 34 -80 0 -125 118 -222 315 -260 218 -41 661 17
865 112 106 50 153 100 174 187 6 23 11 27 44 27 42 0 122 -33 122 -50 0 -19
-85 -123 -152 -185 -137 -129 -291 -206 -508 -256 -125 -29 -368 -36 -485 -15
-218 41 -382 123 -521 262 l-63 63 6 48 c10 86 72 183 116 183 11 0 35 -16 53
-36z"/>
</g>
</svg>
